<?xml version="1.0" encoding="UTF-8"?><svg id="Layer_1" xmlns="http://www.w3.org/2000/svg" xmlns:xlink="http://www.w3.org/1999/xlink" viewBox="0 0 3883.81 2775.37"><defs><style>.cls-1{stroke-width:.75px;}.cls-1,.cls-2,.cls-3{fill:#fff;}.cls-1,.cls-3{font-family:CenturyGothic, 'Century Gothic';font-size:117.47px;stroke:#fff;stroke-miterlimit:10;}.cls-4{fill:none;}.cls-5{font-family:Spantaran, Spantaran;font-size:446.66px;}.cls-6{letter-spacing:-.02em;}.cls-7{clip-path:url(#clippath);}</style><clipPath id="clippath"><rect class="cls-4" x="1834.62" y="1695.37" width="1920" height="1080"/></clipPath></defs><g class="cls-7"><path class="cls-2" d="M2388.84,2048.23c10.47-35.91,34.09-56.41,70.88-61.5,33.95-.02,67.91-.03,101.86-.05-6.47,21.17-12.95,42.34-19.42,63.52h-67.61c-4.36,0-8.44,1.53-12.21,4.58-3.63,3.05-5.96,6.91-6.98,11.56l-11.78,42.96c16.46-.03,32.91-.05,49.37-.08-5.33,21.18-10.67,42.36-16,63.54h-48.85l-26.83,108.39h-70.66l58.23-232.92Z"/><path class="cls-2" d="M2539.36,2263.27c-10.9-8.29-19.12-19.55-24.64-33.8-12.36-30.97-9.74-65.65,7.85-104.03,23.55-42.75,61.65-65.06,114.28-66.96,12.79-.73,25.81-.58,39.04.44,21.52,1.89,37.8,7.16,48.85,15.81,11.05,8.65,19.41,20.1,25.08,34.35,12.36,31.12,9.74,65.79-7.85,104.03-23.41,42.89-62.23,65.43-116.46,67.61-11.05.73-23.55.51-37.51-.65-21.52-2.91-37.73-8.5-48.63-16.79ZM2685.04,2174.73c4.51-16.58,4.65-29.22.44-37.95-4.22-8.72-14.61-13.81-31.19-15.27-21.52-1.6-39.26,2.11-53.21,11.12-10.9,8.43-18.1,18.83-21.59,31.19-10.03,33.01.22,50.74,30.75,53.21,25.01.58,42.75-3.12,53.21-11.12,10.91-8.29,18.1-18.68,21.59-31.19Z"/><path class="cls-2" d="M3264.05,2059.36h65.3c2.61,0,4.52,2.46,3.88,4.99l-14.1,55.25c-.45,1.77-2.05,3.01-3.88,3.01h-35.28c-4.36,0-8.36,1.53-12,4.58-3.49,3.05-5.82,6.91-6.98,11.56l-34.68,142.42h-70.66l38.6-160.52c10.03-35.77,33.29-56.19,69.79-61.29Z"/><path class="cls-2" d="M3325.99,2205.7l53.31-216.68c.33-1.34,1.53-2.28,2.91-2.28h64.45c1.96,0,3.39,1.85,2.91,3.75-8.95,35.01-14.48,56.65-16.61,64.92-.49,1.9.95,3.74,2.91,3.74h44.43c1.94,0,3.38,1.82,2.91,3.71l-14.24,58.34c-.33,1.34-1.53,2.29-2.91,2.29h-47.19c-1.38,0-2.59.95-2.92,2.3-3.53,14.54-6.47,26.67-8.82,36.42-2.47,10.25-4.73,19.56-6.76,27.92-1.98,8.13-3.2,13.27-3.67,15.42-.03.12-.05.24-.06.36-.38,3.56.5,6.77,2.64,9.63,2.18,2.91,5.23,4.36,9.16,4.36h32.83c1.94,0,3.37,1.82,2.92,3.71l-13.38,55.28c-.33,1.35-1.53,2.29-2.92,2.29h-45.18c-19.49,0-34.82-7.56-46.02-22.68-11.34-15.12-14.9-32.71-10.69-52.78Z"/><path class="cls-2" d="M3052.93,2059.79c-52.63,3.2-90.58,26.68-113.85,70.44-17.3,38.38-19.92,72.63-7.85,102.72,5.53,13.96,13.7,25.01,24.54,33.15,10.83,8.14,26.79,12.87,47.87,14.18l24.8.18c1.39,0,2.6-.94,2.93-2.28l13.89-56.55c.46-1.89-.97-3.72-2.91-3.72h-17.56c-29.95-.44-39.99-17.59-30.1-51.47,3.34-12.36,10.39-22.83,21.15-31.41,11.05-9.45,25.66-14.32,43.84-14.61h33.8l-5.45,23.34h.22l-14.91,62.59-13.53,59.01c-1.8,7.85,4.13,15.36,12.19,15.41l53.98.38,48.44-200.67c2.55-10.55-5.45-20.7-16.3-20.7h-105.2Z"/><path class="cls-2" d="M2959.24,2059.36h-94.61c-36.5,5.09-59.76,25.52-69.79,61.29l-38.6,160.52h70.66l34.68-142.42c1.16-4.65,3.49-8.51,6.98-11.56,3.63-3.05,7.63-4.58,12-4.58h26.79c3.3,0,6.31-1.93,7.62-4.95,13.05-30.03,32.05-42.52,46.07-52.89,2.32-1.72,1.1-5.41-1.79-5.41Z"/><path class="cls-2" d="M2378.69,1986.95h-258.83c-.92,0-1.72.63-1.94,1.53l-11.54,47.23c-2.26,9.27,4.75,18.2,14.29,18.2h75.96c1.3,0,2.26,1.23,1.94,2.49l-56.31,222.27c-.32,1.26.63,2.49,1.94,2.49h65.44c.92,0,1.72-.63,1.94-1.52l55.95-224.22c.22-.89,1.02-1.52,1.94-1.52h88.59c.93,0,1.73-.63,1.94-1.53,1.86-7.75,11.41-43,35.73-61.86,1.5-1.16.65-3.56-1.24-3.56h-15.79Z"/><text class="cls-1" transform="translate(2136.39 2448.03)"><tspan x="0" y="0">Together we create art</tspan></text><path class="cls-2" d="M2789.36,957.86c10.47-35.91,34.09-56.41,70.88-61.5,33.95-.02,67.91-.03,101.86-.05-6.47,21.17-12.95,42.34-19.42,63.52h-67.61c-4.36,0-8.44,1.53-12.21,4.58-3.63,3.05-5.96,6.91-6.98,11.56l-11.78,42.96c16.46-.03,32.91-.05,49.37-.08-5.33,21.18-10.67,42.36-16,63.54h-48.85l-26.83,108.39h-70.66l58.23-232.92Z"/><path class="cls-2" d="M2939.88,1172.9c-10.9-8.29-19.12-19.55-24.64-33.8-12.36-30.97-9.74-65.65,7.85-104.03,23.55-42.75,61.65-65.06,114.28-66.96,12.79-.73,25.81-.58,39.04.44,21.52,1.89,37.8,7.16,48.85,15.81,11.05,8.65,19.41,20.1,25.08,34.35,12.36,31.12,9.74,65.79-7.85,104.03-23.41,42.89-62.23,65.43-116.46,67.61-11.05.73-23.55.51-37.51-.65-21.52-2.91-37.73-8.5-48.63-16.79ZM3085.57,1084.36c4.51-16.58,4.65-29.22.44-37.95-4.22-8.72-14.61-13.81-31.19-15.27-21.52-1.6-39.26,2.11-53.21,11.12-10.9,8.43-18.1,18.83-21.59,31.19-10.03,33.01.22,50.74,30.75,53.21,25.01.58,42.75-3.12,53.21-11.12,10.91-8.29,18.1-18.68,21.59-31.19Z"/><path class="cls-2" d="M3664.57,968.99h65.3c2.61,0,4.52,2.46,3.88,4.99l-14.1,55.25c-.45,1.77-2.05,3.01-3.88,3.01h-35.28c-4.36,0-8.36,1.53-12,4.58-3.49,3.05-5.82,6.91-6.98,11.56l-34.68,142.42h-70.66l38.6-160.52c10.03-35.77,33.29-56.19,69.79-61.29Z"/><path class="cls-2" d="M3726.51,1115.33l53.31-216.68c.33-1.34,1.53-2.28,2.91-2.28h64.45c1.96,0,3.39,1.85,2.91,3.75-8.95,35.01-14.48,56.65-16.61,64.92-.49,1.9.95,3.74,2.91,3.74h44.43c1.94,0,3.38,1.82,2.91,3.71l-14.24,58.34c-.33,1.34-1.53,2.29-2.91,2.29h-47.19c-1.38,0-2.59.95-2.92,2.3-3.53,14.54-6.47,26.67-8.82,36.42-2.47,10.25-4.73,19.56-6.76,27.92-1.98,8.13-3.2,13.27-3.67,15.42-.03.12-.05.24-.06.36-.38,3.56.5,6.77,2.64,9.63,2.18,2.91,5.23,4.36,9.16,4.36h32.83c1.94,0,3.37,1.82,2.92,3.71l-13.38,55.28c-.33,1.35-1.53,2.29-2.92,2.29h-45.18c-19.49,0-34.82-7.56-46.02-22.68-11.34-15.12-14.9-32.71-10.69-52.78Z"/><path class="cls-2" d="M3453.45,969.42c-52.63,3.2-90.58,26.68-113.85,70.44-17.3,38.38-19.92,72.63-7.85,102.72,5.53,13.96,13.7,25.01,24.54,33.15,10.83,8.14,26.79,12.87,47.87,14.18l24.8.18c1.39,0,2.6-.94,2.93-2.28l13.89-56.55c.46-1.89-.97-3.72-2.91-3.72h-17.56c-29.95-.44-39.99-17.59-30.1-51.47,3.34-12.36,10.39-22.83,21.15-31.41,11.05-9.45,25.66-14.32,43.84-14.61h33.8l-5.45,23.34h.22l-14.91,62.59-13.53,59.01c-1.8,7.85,4.13,15.36,12.19,15.41l53.98.38,48.44-200.67c2.55-10.55-5.45-20.7-16.3-20.7h-105.2Z"/><path class="cls-2" d="M3359.76,968.99h-94.61c-36.5,5.09-59.76,25.52-69.79,61.29l-38.6,160.52h70.66l34.68-142.42c1.16-4.65,3.49-8.51,6.98-11.56,3.63-3.05,7.63-4.58,12-4.58h26.79c3.3,0,6.31-1.93,7.62-4.95,13.05-30.03,32.05-42.52,46.07-52.89,2.32-1.72,1.1-5.41-1.79-5.41Z"/><path class="cls-2" d="M2779.21,896.58h-258.83c-.92,0-1.72.63-1.94,1.53l-11.54,47.23c-2.26,9.27,4.75,18.2,14.29,18.2h75.96c1.3,0,2.26,1.23,1.94,2.49l-56.31,222.27c-.32,1.26.63,2.49,1.94,2.49h65.44c.92,0,1.72-.63,1.94-1.52l55.95-224.22c.22-.89,1.02-1.52,1.94-1.52h88.59c.93,0,1.73-.63,1.94-1.53,1.86-7.75,11.41-43,35.73-61.86,1.5-1.16.65-3.56-1.24-3.56h-15.79Z"/><text class="cls-3" transform="translate(2536.91 1357.66)"><tspan x="0" y="0">Together we create art</tspan></text><text class="cls-5" transform="translate(0 379.7)"><tspan class="cls-6" x="0" y="0">T</tspan><tspan x="287.41" y="0">forart font</tspan></text></g></svg>