<?xml version="1.0" encoding="UTF-8"?>
<svg id="Layer_2" data-name="Layer 2" xmlns="http://www.w3.org/2000/svg" viewBox="0 0 1377.34 485.91">
  <defs>
    <style>
      .cls-1 {
        stroke-width: 0px;
      }

      .cls-2 {
        stroke: #231f20;
        stroke-miterlimit: 10;
        stroke-width: .25px;
      }
    </style>
  </defs>
  <g id="Layer_1-2" data-name="Layer 1">
    <g>
      <path class="cls-1" d="m282.89,61.55C293.36,25.64,316.98,5.14,353.77.05c33.95-.02,67.91-.03,101.86-.05-6.47,21.17-12.95,42.34-19.42,63.52h-67.61c-4.36,0-8.44,1.53-12.21,4.58-3.63,3.05-5.96,6.91-6.98,11.56l-11.78,42.96c16.46-.03,32.91-.05,49.37-.08-5.33,21.18-10.67,42.36-16,63.54h-48.85l-26.83,108.39h-70.66l58.23-232.92Z"/>
      <path class="cls-1" d="m433.41,276.59c-10.9-8.29-19.12-19.55-24.64-33.8-12.36-30.97-9.74-65.65,7.85-104.03,23.55-42.75,61.65-65.06,114.28-66.96,12.79-.73,25.81-.58,39.04.44,21.52,1.89,37.8,7.16,48.85,15.81,11.05,8.65,19.41,20.1,25.08,34.35,12.36,31.12,9.74,65.79-7.85,104.03-23.41,42.89-62.23,65.43-116.46,67.61-11.05.73-23.55.51-37.51-.65-21.52-2.91-37.73-8.5-48.63-16.79Zm145.69-88.55c4.51-16.58,4.65-29.22.44-37.95-4.22-8.72-14.61-13.81-31.19-15.27-21.52-1.6-39.26,2.11-53.21,11.12-10.9,8.43-18.1,18.83-21.59,31.19-10.03,33.01.22,50.74,30.75,53.21,25.01.58,42.75-3.12,53.21-11.12,10.91-8.29,18.1-18.68,21.59-31.19Z"/>
      <path class="cls-1" d="m1158.1,72.67h65.3c2.61,0,4.52,2.46,3.88,4.99l-14.1,55.25c-.45,1.77-2.05,3.01-3.88,3.01h-35.28c-4.36,0-8.36,1.53-12,4.58-3.49,3.05-5.82,6.91-6.98,11.56l-34.68,142.42h-70.66l38.6-160.52c10.03-35.77,33.29-56.19,69.79-61.29Z"/>
      <path class="cls-1" d="m1220.04,219.02L1273.35,2.33c.33-1.34,1.53-2.28,2.91-2.28h64.45c1.96,0,3.39,1.85,2.91,3.75-8.95,35.01-14.48,56.65-16.61,64.92-.49,1.9.95,3.74,2.91,3.74h44.43c1.94,0,3.38,1.82,2.91,3.71l-14.24,58.34c-.33,1.34-1.53,2.29-2.91,2.29h-47.19c-1.38,0-2.59.95-2.92,2.3-3.53,14.54-6.47,26.67-8.82,36.42-2.47,10.25-4.73,19.56-6.76,27.92-1.98,8.13-3.2,13.27-3.67,15.42-.03.12-.05.24-.06.36-.38,3.56.5,6.77,2.64,9.63,2.18,2.91,5.23,4.36,9.16,4.36h32.83c1.94,0,3.37,1.82,2.92,3.71l-13.38,55.28c-.33,1.35-1.53,2.29-2.92,2.29h-45.18c-19.49,0-34.82-7.56-46.02-22.68-11.34-15.12-14.9-32.71-10.69-52.78Z"/>
      <path class="cls-1" d="m946.99,73.11c-52.63,3.2-90.58,26.68-113.85,70.44-17.3,38.38-19.92,72.63-7.85,102.72,5.53,13.96,13.7,25.01,24.54,33.15,10.83,8.14,26.79,12.87,47.87,14.18l24.8.18c1.39,0,2.6-.94,2.93-2.28l13.89-56.55c.46-1.89-.97-3.72-2.91-3.72h-17.56c-29.95-.44-39.99-17.59-30.1-51.47,3.34-12.36,10.39-22.83,21.15-31.41,11.05-9.45,25.66-14.32,43.84-14.61h33.8l-5.45,23.34h.22l-14.91,62.59-13.53,59.01c-1.8,7.85,4.13,15.36,12.19,15.41l53.98.38,48.44-200.67c2.55-10.55-5.45-20.7-16.3-20.7h-105.2Z"/>
      <path class="cls-1" d="m853.29,72.67h-94.61c-36.5,5.09-59.76,25.52-69.79,61.29l-38.6,160.52h70.66l34.68-142.42c1.16-4.65,3.49-8.51,6.98-11.56,3.63-3.05,7.63-4.58,12-4.58h26.79c3.3,0,6.31-1.93,7.62-4.95,13.05-30.03,32.05-42.52,46.07-52.89,2.32-1.72,1.1-5.41-1.79-5.41Z"/>
      <path class="cls-1" d="m272.74.27H13.91c-.92,0-1.72.63-1.94,1.53L.43,49.02c-2.26,9.27,4.75,18.2,14.29,18.2h75.96c1.3,0,2.26,1.23,1.94,2.49l-56.31,222.27c-.32,1.26.63,2.49,1.94,2.49h65.44c.92,0,1.72-.63,1.94-1.52l55.95-224.22c.22-.89,1.02-1.52,1.94-1.52h88.59c.93,0,1.73-.63,1.94-1.53,1.86-7.75,11.41-43,35.73-61.86,1.5-1.16.65-3.56-1.24-3.56h-15.79Z"/>
    </g>
    <g>
      <path class="cls-2" d="m32.34,385.23v-8.26h46.23v8.26h-18.81v76.12h-8.6v-76.12h-18.81Z"/>
      <path class="cls-2" d="m118.95,397.34c9.61,0,17.58,3.48,23.9,10.44,5.75,6.35,8.62,13.86,8.62,22.54s-3.04,16.34-9.11,22.86c-6.07,6.52-13.88,9.78-23.42,9.78s-17.4-3.26-23.47-9.78c-6.07-6.52-9.11-14.14-9.11-22.86s2.87-16.14,8.62-22.49c6.32-7,14.31-10.5,23.96-10.5Zm-.03,7.86c-6.68,0-12.41,2.47-17.21,7.4-4.8,4.93-7.2,10.9-7.2,17.9,0,4.51,1.09,8.72,3.28,12.62,2.19,3.9,5.14,6.91,8.87,9.03,3.72,2.12,7.81,3.18,12.26,3.18s8.54-1.06,12.26-3.18,6.68-5.13,8.87-9.03c2.19-3.9,3.28-8.11,3.28-12.62,0-7-2.41-12.96-7.22-17.9-4.82-4.93-10.54-7.4-17.18-7.4Z"/>
      <path class="cls-2" d="m220.13,398.94h8.03v49.73c0,8.76-.77,15.16-2.29,19.22-2.1,5.74-5.76,10.15-10.96,13.25-5.2,3.1-11.45,4.65-18.76,4.65-5.35,0-10.16-.76-14.43-2.27-4.26-1.52-7.73-3.55-10.41-6.1-2.68-2.55-5.14-6.28-7.4-11.19h8.72c2.37,4.13,5.44,7.19,9.19,9.18,3.75,1.99,8.4,2.98,13.96,2.98s10.1-1.02,13.87-3.06c3.77-2.04,6.46-4.6,8.07-7.69,1.61-3.09,2.41-8.07,2.41-14.95v-3.21c-3.02,3.82-6.72,6.76-11.08,8.8-4.36,2.05-9,3.07-13.89,3.07-5.74,0-11.14-1.42-16.19-4.27-5.05-2.85-8.96-6.68-11.71-11.5-2.76-4.82-4.13-10.11-4.13-15.89s1.43-11.16,4.31-16.15,6.84-8.94,11.91-11.84,10.42-4.36,16.05-4.36c4.67,0,9.02.97,13.06,2.9,4.04,1.93,7.93,5.11,11.68,9.55v-10.84Zm-23.69,6.14c-4.55,0-8.78,1.1-12.68,3.3-3.9,2.2-6.96,5.24-9.18,9.12-2.22,3.88-3.33,8.08-3.33,12.59,0,6.85,2.29,12.5,6.88,16.98,4.59,4.47,10.54,6.71,17.84,6.71s13.32-2.22,17.81-6.65c4.49-4.43,6.74-10.27,6.74-17.49,0-4.7-1.03-8.9-3.1-12.59-2.06-3.69-4.99-6.61-8.78-8.75-3.79-2.14-7.86-3.21-12.22-3.21Z"/>
      <path class="cls-2" d="m297.91,440.64l6.77,3.56c-2.22,4.36-4.78,7.88-7.69,10.55-2.91,2.68-6.18,4.71-9.82,6.11-3.64,1.4-7.75,2.09-12.34,2.09-10.18,0-18.14-3.34-23.88-10.01-5.74-6.67-8.61-14.21-8.61-22.63,0-7.92,2.43-14.97,7.29-21.17,6.16-7.88,14.41-11.82,24.74-11.82s19.14,4.03,25.49,12.1c4.52,5.7,6.81,12.81,6.89,21.34h-56.15c.15,7.25,2.47,13.19,6.95,17.83,4.48,4.63,10.01,6.95,16.6,6.95,3.18,0,6.27-.55,9.27-1.66,3-1.1,5.56-2.57,7.67-4.4,2.11-1.83,4.38-4.78,6.83-8.86Zm0-16.81c-1.07-4.28-2.63-7.71-4.68-10.27-2.05-2.56-4.76-4.63-8.13-6.19s-6.91-2.35-10.62-2.35c-6.13,0-11.39,1.97-15.79,5.91-3.22,2.87-5.65,7.17-7.29,12.91h46.52Z"/>
      <path class="cls-2" d="m328.71,375.77h8.03v23.17h12.73v6.94h-12.73v55.47h-8.03v-55.47h-10.96v-6.94h10.96v-23.17Z"/>
      <path class="cls-2" d="m361.52,374.85h8.03v35.28c3.25-4.28,6.83-7.49,10.73-9.61,3.9-2.12,8.13-3.18,12.68-3.18s8.8,1.19,12.42,3.56c3.61,2.37,6.28,5.56,8,9.55,1.72,4,2.58,10.26,2.58,18.79v32.12h-8.03v-29.77c0-7.19-.29-11.99-.86-14.4-1-4.13-2.8-7.24-5.42-9.32-2.62-2.08-6.05-3.13-10.3-3.13-4.86,0-9.21,1.61-13.05,4.82-3.84,3.21-6.38,7.19-7.6,11.93-.77,3.06-1.15,8.72-1.15,16.98v22.89h-8.03v-86.5Z"/>
      <path class="cls-2" d="m485.7,440.64l6.77,3.56c-2.22,4.36-4.78,7.88-7.69,10.55-2.91,2.68-6.18,4.71-9.82,6.11-3.64,1.4-7.75,2.09-12.34,2.09-10.18,0-18.14-3.34-23.88-10.01-5.74-6.67-8.61-14.21-8.61-22.63,0-7.92,2.43-14.97,7.29-21.17,6.16-7.88,14.41-11.82,24.74-11.82s19.14,4.03,25.49,12.1c4.52,5.7,6.81,12.81,6.89,21.34h-56.15c.15,7.25,2.47,13.19,6.95,17.83,4.48,4.63,10.01,6.95,16.6,6.95,3.18,0,6.27-.55,9.27-1.66,3-1.1,5.56-2.57,7.67-4.4,2.11-1.83,4.38-4.78,6.83-8.86Zm0-16.81c-1.07-4.28-2.63-7.71-4.68-10.27-2.05-2.56-4.76-4.63-8.13-6.19s-6.91-2.35-10.62-2.35c-6.13,0-11.39,1.97-15.79,5.91-3.22,2.87-5.65,7.17-7.29,12.91h46.52Z"/>
      <path class="cls-2" d="m506.47,398.94h8.2v9.12c2.45-3.59,5.03-6.28,7.74-8.06s5.54-2.67,8.49-2.67c2.22,0,4.59.71,7.11,2.12l-4.19,6.77c-1.68-.73-3.1-1.09-4.25-1.09-2.68,0-5.26,1.1-7.74,3.3-2.49,2.2-4.38,5.61-5.68,10.24-1,3.56-1.49,10.75-1.49,21.57v21.11h-8.2v-62.41Z"/>
      <path class="cls-2" d="m568.93,398.94h8.26l19.13,45.31,19.91-45.31h1.46l20.05,45.31,19.5-45.31h8.35l-27.11,62.41h-1.49l-19.95-44.68-19.94,44.68h-1.5l-26.66-62.41Z"/>
      <path class="cls-2" d="m727.53,440.64l6.77,3.56c-2.22,4.36-4.78,7.88-7.69,10.55-2.91,2.68-6.18,4.71-9.82,6.11-3.64,1.4-7.75,2.09-12.34,2.09-10.18,0-18.14-3.34-23.88-10.01-5.74-6.67-8.61-14.21-8.61-22.63,0-7.92,2.43-14.97,7.29-21.17,6.16-7.88,14.41-11.82,24.74-11.82s19.14,4.03,25.49,12.1c4.52,5.7,6.81,12.81,6.89,21.34h-56.15c.15,7.25,2.47,13.19,6.95,17.83,4.48,4.63,10.01,6.95,16.6,6.95,3.18,0,6.27-.55,9.27-1.66,3-1.1,5.56-2.57,7.67-4.4,2.11-1.83,4.38-4.78,6.83-8.86Zm0-16.81c-1.07-4.28-2.63-7.71-4.68-10.27-2.05-2.56-4.76-4.63-8.13-6.19s-6.91-2.35-10.62-2.35c-6.13,0-11.39,1.97-15.79,5.91-3.22,2.87-5.65,7.17-7.29,12.91h46.52Z"/>
      <path class="cls-2" d="m844.43,411.91l-6.37,3.96c-5.5-7.3-13-10.96-22.52-10.96-7.6,0-13.91,2.45-18.94,7.33s-7.53,10.83-7.53,17.82c0,4.54,1.16,8.82,3.47,12.83,2.31,4.01,5.48,7.12,9.51,9.34,4.03,2.21,8.55,3.32,13.55,3.32,9.17,0,16.65-3.65,22.46-10.96l6.37,4.19c-2.98,4.49-6.99,7.98-12.02,10.45-5.03,2.48-10.75,3.71-17.18,3.71-9.87,0-18.05-3.14-24.55-9.41s-9.75-13.9-9.75-22.89c0-6.04,1.52-11.65,4.56-16.83,3.04-5.18,7.22-9.22,12.53-12.13,5.31-2.91,11.26-4.36,17.84-4.36,4.13,0,8.12.63,11.96,1.89s7.1,2.91,9.78,4.93c2.68,2.03,4.95,4.61,6.83,7.74Z"/>
      <path class="cls-2" d="m856.82,398.94h8.2v9.12c2.45-3.59,5.03-6.28,7.74-8.06s5.54-2.67,8.49-2.67c2.22,0,4.59.71,7.11,2.12l-4.19,6.77c-1.68-.73-3.1-1.09-4.25-1.09-2.68,0-5.26,1.1-7.74,3.3-2.49,2.2-4.38,5.61-5.68,10.24-1,3.56-1.49,10.75-1.49,21.57v21.11h-8.2v-62.41Z"/>
      <path class="cls-2" d="m947.73,440.64l6.77,3.56c-2.22,4.36-4.78,7.88-7.69,10.55-2.91,2.68-6.18,4.71-9.82,6.11-3.64,1.4-7.75,2.09-12.34,2.09-10.18,0-18.14-3.34-23.88-10.01-5.74-6.67-8.61-14.21-8.61-22.63,0-7.92,2.43-14.97,7.29-21.17,6.16-7.88,14.41-11.82,24.74-11.82s19.14,4.03,25.49,12.1c4.52,5.7,6.81,12.81,6.89,21.34h-56.15c.15,7.25,2.47,13.19,6.95,17.83,4.48,4.63,10.01,6.95,16.6,6.95,3.18,0,6.27-.55,9.27-1.66,3-1.1,5.56-2.57,7.67-4.4,2.11-1.83,4.38-4.78,6.83-8.86Zm0-16.81c-1.07-4.28-2.63-7.71-4.68-10.27-2.05-2.56-4.76-4.63-8.13-6.19s-6.91-2.35-10.62-2.35c-6.13,0-11.39,1.97-15.79,5.91-3.22,2.87-5.65,7.17-7.29,12.91h46.52Z"/>
      <path class="cls-2" d="m1033.72,398.94v62.41h-7.92v-10.73c-3.37,4.09-7.14,7.17-11.33,9.24-4.19,2.06-8.77,3.1-13.74,3.1-8.83,0-16.38-3.2-22.63-9.61-6.25-6.4-9.38-14.2-9.38-23.37s3.15-16.67,9.46-23.06c6.31-6.39,13.9-9.58,22.77-9.58,5.12,0,9.76,1.09,13.91,3.27,4.15,2.18,7.79,5.45,10.93,9.81v-11.47h7.92Zm-32.09,6.14c-4.47,0-8.59,1.1-12.38,3.29-3.78,2.2-6.79,5.28-9.02,9.25-2.23,3.97-3.35,8.17-3.35,12.6s1.13,8.59,3.38,12.6c2.25,4.01,5.28,7.13,9.08,9.37,3.8,2.24,7.88,3.35,12.23,3.35s8.56-1.11,12.49-3.32c3.93-2.22,6.96-5.21,9.08-9s3.18-8.04,3.18-12.78c0-7.22-2.38-13.25-7.13-18.11-4.75-4.85-10.61-7.28-17.56-7.28Z"/>
      <path class="cls-2" d="m1058.78,375.77h8.03v23.17h12.73v6.94h-12.73v55.47h-8.03v-55.47h-10.96v-6.94h10.96v-23.17Z"/>
      <path class="cls-2" d="m1144.13,440.64l6.77,3.56c-2.22,4.36-4.78,7.88-7.69,10.55-2.91,2.68-6.18,4.71-9.82,6.11-3.64,1.4-7.75,2.09-12.34,2.09-10.18,0-18.14-3.34-23.88-10.01-5.74-6.67-8.61-14.21-8.61-22.63,0-7.92,2.43-14.97,7.29-21.17,6.16-7.88,14.41-11.82,24.74-11.82s19.14,4.03,25.49,12.1c4.52,5.7,6.81,12.81,6.89,21.34h-56.15c.15,7.25,2.47,13.19,6.95,17.83,4.48,4.63,10.01,6.95,16.6,6.95,3.18,0,6.27-.55,9.27-1.66,3-1.1,5.56-2.57,7.67-4.4,2.11-1.83,4.38-4.78,6.83-8.86Zm0-16.81c-1.07-4.28-2.63-7.71-4.68-10.27-2.05-2.56-4.76-4.63-8.13-6.19s-6.91-2.35-10.62-2.35c-6.13,0-11.39,1.97-15.79,5.91-3.22,2.87-5.65,7.17-7.29,12.91h46.52Z"/>
      <path class="cls-2" d="m1262.64,398.94v62.41h-7.92v-10.73c-3.37,4.09-7.14,7.17-11.33,9.24-4.19,2.06-8.77,3.1-13.74,3.1-8.83,0-16.38-3.2-22.63-9.61-6.25-6.4-9.38-14.2-9.38-23.37s3.15-16.67,9.46-23.06c6.31-6.39,13.9-9.58,22.77-9.58,5.12,0,9.76,1.09,13.91,3.27,4.15,2.18,7.79,5.45,10.93,9.81v-11.47h7.92Zm-32.09,6.14c-4.47,0-8.59,1.1-12.38,3.29-3.78,2.2-6.79,5.28-9.02,9.25-2.23,3.97-3.35,8.17-3.35,12.6s1.13,8.59,3.38,12.6c2.25,4.01,5.28,7.13,9.08,9.37,3.8,2.24,7.88,3.35,12.23,3.35s8.56-1.11,12.49-3.32c3.93-2.22,6.96-5.21,9.08-9s3.18-8.04,3.18-12.78c0-7.22-2.38-13.25-7.13-18.11-4.75-4.85-10.61-7.28-17.56-7.28Z"/>
      <path class="cls-2" d="m1277.66,398.94h8.2v9.12c2.45-3.59,5.03-6.28,7.74-8.06s5.54-2.67,8.49-2.67c2.22,0,4.59.71,7.11,2.12l-4.19,6.77c-1.68-.73-3.1-1.09-4.25-1.09-2.68,0-5.26,1.1-7.74,3.3-2.49,2.2-4.38,5.61-5.68,10.24-1,3.56-1.49,10.75-1.49,21.57v21.11h-8.2v-62.41Z"/>
      <path class="cls-2" d="m1323.04,375.77h8.03v23.17h12.73v6.94h-12.73v55.47h-8.03v-55.47h-10.96v-6.94h10.96v-23.17Z"/>
    </g>
  </g>
</svg>